<?xml version="1.0" standalone="no"?><!DOCTYPE svg PUBLIC "-//W3C//DTD SVG 1.1//EN" "http://www.w3.org/Graphics/SVG/1.1/DTD/svg11.dtd"><svg class="icon" width="200px" height="200.00px" viewBox="0 0 1024 1024" version="1.1" xmlns="http://www.w3.org/2000/svg"><path fill="#bfbfbf" d="M0 512C0 794.752 229.216 1024 512 1024 794.784 1024 1024 794.752 1024 512 1024 229.216 794.784 0 512 0 229.216 0 0 229.216 0 512ZM959.808 512C959.808 759.328 759.328 959.808 512 959.808 264.672 959.808 64.192 759.328 64.192 512 64.192 264.672 264.672 64.192 512 64.192 759.328 64.192 959.808 264.672 959.808 512ZM317.728 512 544 738.272 589.248 693.024 408.256 512 589.248 330.976 544 285.728 317.728 512Z" /></svg>