<?xml version="1.0" standalone="no"?><!DOCTYPE svg PUBLIC "-//W3C//DTD SVG 1.1//EN" "http://www.w3.org/Graphics/SVG/1.1/DTD/svg11.dtd"><svg class="icon" width="200px" height="200.00px" viewBox="0 0 1024 1024" version="1.1" xmlns="http://www.w3.org/2000/svg"><path fill="#8a8a8a" d="M894.818462 834.323692l-8.507077-85.543384c-2.520615-25.521231-5.041231-51.042462-7.561847-76.721231l-8.507076-85.070769-8.507077-85.07077c-2.835692-28.829538-5.828923-57.501538-8.664616-86.331076-1.260308-12.288-1.575385-24.576-3.623384-36.706462-6.301538-35.446154-36.076308-60.179692-71.995077-60.337231-22.685538-0.157538-45.371077 0-68.214154 0h-4.568616c0-15.438769 0.472615-53.563077-0.157538-68.529231-0.472615-12.603077-1.102769-25.363692-3.150769-37.966769-12.603077-76.721231-75.303385-140.996923-151.709539-155.963077-9.137231-1.732923-18.432-2.835692-27.56923-4.096h-24.418462c-1.102769 0.157538-2.048 0.630154-3.150769 0.630154-43.953231 3.623385-82.550154 20.007385-115.160616 49.624616-38.124308 34.658462-59.707077 77.824-63.488 129.181538-1.417846 19.849846-0.630154 62.700308-0.94523 82.707692v4.411077h-5.041231c-23.473231 0-46.788923-0.157538-70.262154 0.157539-33.240615 0.472615-63.488 25.363692-69.159385 58.28923-3.150769 18.274462-3.938462 36.864-5.828923 55.138462-2.520615 25.521231-5.041231 51.042462-7.561846 76.721231-2.835692 28.672-5.671385 57.344-8.664615 86.016-2.835692 28.041846-5.513846 56.241231-8.349539 84.283077-3.150769 31.035077-6.301538 62.070154-9.452307 93.262769-2.835692 28.987077-5.828923 57.816615-8.664616 86.803692-0.787692 8.349538-2.205538 16.699077-1.575384 25.048616 2.835692 38.439385 34.343385 67.584 72.940307 67.584h632.674462c9.924923 0 19.377231-1.890462 28.356923-5.671385 26.781538-11.027692 45.843692-38.912 44.583385-67.111385-0.472615-15.123692-2.520615-29.932308-4.096-44.740923z m-531.219693-590.76923c0.787692-68.529231 52.460308-129.024 120.201846-140.524308 79.399385-13.548308 152.969846 36.548923 169.196308 115.318154 1.417846 6.774154 2.363077 13.705846 2.520615 20.48 0.315077 18.589538 0.157538 60.337231 0.157539 79.399384H363.913846c-0.157538-1.102769-0.315077-2.048-0.315077-3.150769 0-16.068923-0.157538-55.296 0-71.522461z m447.251693 658.35323c-3.465846 0.630154-6.931692 0.787692-10.555077 0.787693H219.136c-26.308923 0-46.473846-16.856615-49.782154-42.692923-0.945231-7.719385 0.630154-15.911385 1.417846-23.788308 3.308308-30.562462 6.774154-61.282462 10.24-91.844923 3.623385-32.925538 7.404308-65.851077 11.027693-98.776616 3.150769-27.884308 6.144-55.926154 9.294769-83.810461 3.150769-27.884308 6.301538-55.926154 9.294769-83.810462 2.363077-21.897846 5.041231-43.795692 6.931692-65.693538 1.890462-21.582769 17.801846-39.542154 38.281847-43.953231 2.993231-0.630154 6.144-1.102769 9.294769-1.102769 15.753846-0.157538 484.115692-0.787692 496.088615 0.787692 21.897846 3.150769 38.912 22.055385 40.802462 44.110769 1.417846 17.014154 3.465846 33.870769 5.198769 50.884923l8.507077 77.036308c3.150769 28.041846 6.301538 56.083692 9.294769 84.283077l8.507077 76.563692c3.150769 28.041846 6.301538 56.083692 9.452308 84.283077 2.520615 22.528 5.198769 45.056 7.561846 67.741539 2.048 22.212923-16.699077 45.213538-39.699692 48.994461z" /></svg>