<?xml version="1.0" standalone="no"?><!DOCTYPE svg PUBLIC "-//W3C//DTD SVG 1.1//EN" "http://www.w3.org/Graphics/SVG/1.1/DTD/svg11.dtd"><svg class="icon" width="200px" height="200.00px" viewBox="0 0 1024 1024" version="1.1" xmlns="http://www.w3.org/2000/svg"><path fill="#8a8a8a" d="M512.306452 97.790236v58.382231c0.729778 0 2.067704 0.608148 2.675852 1.094667 0.364889 0.729778 0.608148 1.459556 0.973037 2.067704l99.614681 202.391733c8.270816 16.784891 23.961041 28.461337 42.327118 31.745338l222.582254 38.921487c0.729778 0.12163 1.581185 0.243259 2.310963 0.364889 0.364889 0 0.973037 0.486519 1.094667 0.851407 0.243259 1.094667 0.608148 2.310963 0.973037 3.40563 0.243259 0.729778 0.973037 2.919112-1.094666 5.351705L724.550186 592.458012c-14.473928 13.62252-21.041929 33.691412-17.393039 53.152155L747.659819 863.570495v0.12163c0.364889 2.189334-1.459556 4.013778-2.554222 4.865186-0.243259 0.243259-0.486519 0.364889-0.729778 0.608148-0.973037-0.243259-2.189334-0.729778-3.52726-1.337926l-202.391733-101.195867c-8.270816-4.135408-17.14978-6.203112-26.150374-6.203112-8.878964 0-17.757928 2.067704-25.907115 6.081483l-203.972918 101.195866c-0.608148 0.243259-1.094667 0.608148-1.702815 0.851408-0.12163 0-0.608148 0.243259-1.337926 0.243259-0.729778 0-1.337926-0.12163-1.459556-0.243259-1.337926-1.094667-2.432593-3.284-2.554223-4.378667v-0.12163L317.455757 645.975056c3.770519-19.704003-2.797482-40.016154-17.514669-53.760304L140.72788 443.948212c-1.459556-1.702815-2.189334-4.986816-2.067704-6.93289 0.608148-1.337926 1.216296-1.946074 1.459555-2.189333 0.12163-0.12163 0.364889-0.243259 1.094667-0.364889 1.094667-0.12163 2.189334-0.243259 3.162371-0.486519l222.582255-40.502672c18.244447-3.284 33.813042-15.082076 41.962228-31.623709L508.414303 159.699727c1.337926-2.554223 3.40563-3.40563 3.770519-3.40563V97.790236m0.12163 0c-23.352892 0-45.124599 13.987409-56.071267 35.759117l-99.614681 202.391733-222.582255 40.502672c-24.934078 3.162371-43.543414 20.190521-51.327711 43.543414-6.203112 21.771707 0 48.28697 17.14978 65.43675l160.307875 149.604466-42.083858 217.960328c-4.621927 23.352892 6.203112 48.28697 24.934078 62.274379 10.46015 7.905927 23.474522 11.798076 36.367265 11.798076 10.095261 0 20.068892-2.432593 28.947856-7.176149l203.972918-101.195867 202.391733 101.195867c9.365483 4.621927 20.190521 7.784297 29.556004 7.784297 13.987409 0 26.515263-4.621927 35.759117-12.406224 18.730966-13.987409 29.556004-37.340302 24.934077-62.274379l-40.502672-217.960328 160.307875-151.064022c17.14978-17.14978 23.352892-42.083858 15.568595-65.43675-6.203112-23.352892-26.515263-40.502673-49.868156-43.543414l-222.582254-38.921487-99.614681-202.391733c-9.243853-21.771707-32.596745-35.880746-55.949638-35.880746z" /></svg>