<?xml version="1.0" standalone="no"?><!DOCTYPE svg PUBLIC "-//W3C//DTD SVG 1.1//EN" "http://www.w3.org/Graphics/SVG/1.1/DTD/svg11.dtd"><svg class="icon" width="200px" height="200.00px" viewBox="0 0 1024 1024" version="1.1" xmlns="http://www.w3.org/2000/svg"><path fill="#8a8a8a" d="M981.357714 1024H42.642286A77.458286 77.458286 0 0 1 0 981.284571a53.174857 53.174857 0 0 1 42.642286-42.642285h938.715428a53.174857 53.174857 0 0 1 42.642286 42.642285 53.174857 53.174857 0 0 1-42.642286 42.715429z m21.942857-906.166857L906.166857 20.333714a69.339429 69.339429 0 0 0-98.084571 0L327.826286 501.101714l-132.461715 282.038857a34.889143 34.889143 0 0 0 31.232 49.664 36.571429 36.571429 0 0 0 14.774858-3.437714l281.746285-132.534857 480.402286-480.768a69.632 69.632 0 0 0 0.073143-98.230857zM485.888 643.657143l-198.070857 93.110857 93.110857-198.217143L728.795429 190.171429 833.828571 295.350857zM958.171429 170.788571L878.957714 250.148571l-104.96-105.106285L853.284571 65.828571a5.339429 5.339429 0 0 1 7.314286 0L958.171429 163.181714a5.193143 5.193143 0 0 1 1.609142 3.803429 5.12 5.12 0 0 1-1.609142 3.803428z"  /></svg>