<?xml version="1.0" standalone="no"?><!DOCTYPE svg PUBLIC "-//W3C//DTD SVG 1.1//EN" "http://www.w3.org/Graphics/SVG/1.1/DTD/svg11.dtd"><svg class="icon" width="200px" height="200.00px" viewBox="0 0 1024 1024" version="1.1" xmlns="http://www.w3.org/2000/svg"><path fill="#8a8a8a" d="M261.818182 0C143.173818 0 46.685091 113.989818 46.685091 254.091636c0 110.033455 61.300364 207.872 148.48 241.570909-8.238545 83.735273-37.934545 384-37.934546 423.470546a104.727273 104.727273 0 0 0 104.587637 104.727273c63.488 0 104.541091-41.192727 104.541091-104.727273 0-48.081455-27.834182-343.691636-35.374546-424.541091C416.814545 460.101818 477.090909 363.054545 477.090909 254.091636 477.090909 113.989818 380.602182 0 261.818182 0z m36.352 474.484364c-6.981818 2.094545-1.024 12.381091 0.884363 37.422545 14.242909 148.48 29.696 369.803636 29.696 414.766546 0 47.010909-41.192727 58.554182-66.932363 58.554181-31.790545 0-65.256727-26.763636-65.256727-58.554181 0-38.446545 19.409455-300.078545 31.604363-420.910546 1.396364-14.103273 6.004364-28.346182-2.792727-31.278545C143.36 453.213091 83.781818 362.402909 83.781818 258.513455 83.781818 136.843636 163.607273 37.981091 261.818182 37.981091c98.210909 0 177.989818 99.048727 177.989818 220.625454 0 103.842909-59.578182 194.653091-141.637818 215.97091zM929.792 29.370182c-10.333091 0-17.873455 4.980364-17.873455 19.549091v246.225454c0 72.610909-59.717818 150.528-130.327272 166.306909-14.196364 3.072-11.310545 6.376727-11.310546 17.873455 0 0.651636 0.372364 1.024 0.698182 1.536 12.893091 134.237091 36.910545 396.706909 36.910546 438.272 0 42.914909-36.770909 60.416-60.276364 60.416-28.997818 0-60.229818-31.418182-60.229818-60.416 0-35.188364 30.394182-329.076364 41.378909-439.482182 0.139636-0.512-0.186182-0.837818-0.186182-1.396364 0-9.914182 0.325818-13.498182-13.544727-16.47709-71.447273-15.080727-132.049455-93.184-132.049455-166.632728V47.150545c0-14.568727-9.262545-17.826909-17.826909-17.826909-9.309091 0-17.873455 3.258182-17.873454 17.826909V295.098182c0 90.112 58.740364 161.373091 142.336 189.719273-8.098909 80.151273-38.120727 394.658909-38.120728 434.501818 0 57.669818 38.260364 96.116364 95.976728 96.116363 63.488 0 95.930182-32.581818 95.930181-96.116363 0-48.407273-28.299636-357.794909-35.700363-435.2 82.245818-28.997818 139.776-99.746909 139.776-188.648728V48.872727c0.139636-14.568727-8.098909-19.549091-17.687273-19.549091zM812.032 334.568727a18.013091 18.013091 0 0 1-18.059636-18.013091V45.986909a18.013091 18.013091 0 1 1 36.072727 0v270.429091a18.152727 18.152727 0 0 1-18.013091 18.152727z m-130.327273 0a18.013091 18.013091 0 0 1-18.013091-18.013091V45.986909a18.013091 18.013091 0 1 1 36.026182 0v270.429091a18.152727 18.152727 0 0 1-18.013091 18.152727z" /></svg>