<?xml version="1.0" standalone="no"?><!DOCTYPE svg PUBLIC "-//W3C//DTD SVG 1.1//EN" "http://www.w3.org/Graphics/SVG/1.1/DTD/svg11.dtd"><svg class="icon" width="200px" height="200.00px" viewBox="0 0 1024 1024" version="1.1" xmlns="http://www.w3.org/2000/svg"><path fill="#8a8a8a" d="M931.691641 853.673753 92.603071 853.673753c-15.706727 0-28.444842-12.628622-28.444842-28.15627L64.158229 199.123107c0-15.500019 12.737092-28.128641 28.444842-28.128641l839.08857 0c15.708773 0 28.441772 12.628622 28.441772 28.128641l0 626.394377C960.134437 841.045131 947.401438 853.673753 931.691641 853.673753zM498.999918 545.985022c11.106965 10.994402 29.118178 10.994402 40.223097 0l335.582011-332.158029L149.491733 213.826993 498.999918 545.985022zM640.146589 512.487094c32.948413 25.303292 209.543434 139.972938 277.324166 191.992709l0-469.318922C855.533101 296.438503 729.031988 424.548252 640.146589 512.487094zM106.828051 789.812283c0 7.763824 13.477966 21.332864 21.330818 21.332864l767.977999 0c7.855922 0 21.332864-13.56904 21.332864-21.332864l0-21.332864L606.054119 540.995381c-39.874149 39.423895-66.831105 66.113767-66.831105 66.113767-11.104919 10.990309-29.116131 10.990309-40.223097 0l-72.915683-72.138994L106.828051 768.479419 106.828051 789.812283zM106.828051 704.479803c68.017116-52.216245 222.839251-150.192697 277.324166-191.992709l-277.324166-277.326213c-1.083681 2.01182 0-2.402723 0 0L106.828051 704.479803z" /></svg>