<?xml version="1.0" standalone="no"?><!DOCTYPE svg PUBLIC "-//W3C//DTD SVG 1.1//EN" "http://www.w3.org/Graphics/SVG/1.1/DTD/svg11.dtd"><svg class="icon" width="200px" height="200.00px" viewBox="0 0 1024 1024" version="1.1" xmlns="http://www.w3.org/2000/svg"><path fill="#8a8a8a" d="M877.172 743.429 132.346 743.429c-14.685 0-26.603 11.916-26.603 26.6 0 14.688 11.918 26.605 26.603 26.605l744.827 0c14.687 0 26.603-11.916 26.603-26.605C903.775 755.345 891.859 743.429 877.172 743.429L877.172 743.429zM797.373 849.832 212.144 849.832c-14.685 0-26.6 11.916-26.6 26.601 0 14.687 11.916 26.601 26.6 26.601l585.229 0c14.677 0 26.594-11.916 26.594-26.601S812.049 849.832 797.373 849.832zM876.083 572.838c2.232 0.584 4.489 1.038 6.779 1.038 8.329-0.025 16.496-3.887 21.683-11.122 34.258-47.75 52.402-103.927 52.402-162.48 0-154.017-125.293-279.308-279.307-279.308-110.583 0-211.75 67.143-255.774 168.116l-40.567-56.793c-5.132-7.209-12.34-10.986-22.479-11.149-8.857 0.293-17.025 4.977-21.71 12.512L71.1 659.265c-7.793 12.477-3.986 28.892 8.435 36.661 4.393 2.769 9.287 4.043 14.076 4.043 8.857 0 17.528-4.417 22.587-12.5l244.936-391.889 242.898 340.037c4.79 6.706 12.421 10.803 20.645 11.121 8.322 0.641 16.147-3.221 21.441-9.522l111.461-133.777 139.41 185.886c8.784 11.758 25.459 14.104 37.213 5.319 11.762-8.798 14.157-25.482 5.324-37.212l-63.443-84.591L876.083 572.838zM856.795 547.063l-76.852-102.465c-4.895-6.518-12.469-10.457-20.586-10.642-8.33-0.14-15.935 3.318-21.123 9.544L627.285 576.668 453.551 333.428c5.828-2.849 10.692-7.638 13.223-14.148 33.381-86.806 118.11-145.11 210.865-145.11 124.675 0 226.11 101.425 226.11 226.104 0 47.352-14.687 92.812-42.434 131.463C857.965 536.396 856.853 541.737 856.795 547.063L856.795 547.063z" /></svg>