<?xml version="1.0" standalone="no"?><!DOCTYPE svg PUBLIC "-//W3C//DTD SVG 1.1//EN" "http://www.w3.org/Graphics/SVG/1.1/DTD/svg11.dtd"><svg class="icon" width="200px" height="200.00px" viewBox="0 0 1024 1024" version="1.1" xmlns="http://www.w3.org/2000/svg"><path fill="#8a8a8a" d="M935.542 405.076l-70.218 40.884c3.944 21.48 6.514 43.406 6.514 66.04 0 22.632-2.57 44.558-6.514 66.026l70.218 40.88c28.688 16.714 38.522 53.698 21.956 82.622l-59.97 104.734c-16.566 28.926-53.24 38.832-81.928 22.134l-70.942-41.296c-33.16 28.452-70.838 51.706-112.708 66.646l0 51.332c0 33.398-26.842 60.476-59.972 60.476l-119.944 0c-33.13 0-59.97-27.078-59.97-60.476l0-51.332c-41.888-14.942-79.58-38.196-112.71-66.646l-70.958 41.296c-28.672 16.698-65.36 6.792-81.912-22.134l-59.986-104.734c-16.55-28.924-6.732-65.906 21.954-82.622l70.218-40.88c-3.926-21.466-6.512-43.392-6.512-66.026 0-22.634 2.584-44.558 6.512-66.04l-70.218-40.884c-28.686-16.698-38.504-53.682-21.954-82.604l59.986-104.736c16.55-28.938 53.24-38.844 81.912-22.146l70.958 41.31c33.146-28.452 70.822-51.704 112.71-66.66L392.064 118.92c0-33.396 26.84-60.474 59.97-60.474l119.944 0c33.13 0 59.972 27.078 59.972 60.474l0 51.32c41.872 14.956 79.548 38.208 112.708 66.66l70.942-41.31c28.688-16.698 65.362-6.792 81.928 22.146l59.97 104.736C974.062 351.396 964.228 388.378 935.542 405.076zM890.57 326.532l-29.986-52.382c-8.282-14.454-26.634-19.416-40.968-11.074l-83.314 48.514c-42.288-48.102-99.454-82.606-164.326-95.892L571.976 149.156c0-16.698-13.436-30.236-30-30.236l-59.972 0c-16.55 0-29.97 13.54-29.97 30.236l0 66.542c-64.888 13.288-122.04 47.79-164.326 95.892l-83.328-48.514c-14.334-8.342-32.688-3.38-40.956 11.074l-29.986 52.382c-8.282 14.454-3.38 32.954 10.97 41.296l83.654 48.706c-9.966 30.076-15.932 62.008-15.932 95.464 0 33.47 5.964 65.388 15.932 95.464l-83.654 48.706c-14.35 8.342-19.252 26.842-10.97 41.296l29.986 52.37c8.268 14.468 26.62 19.428 40.956 11.072l83.314-48.5c42.3 48.102 99.452 82.604 164.34 95.876l0 66.558c0 16.698 13.42 30.234 29.97 30.234l59.972 0c16.564 0 30-13.538 30-30.234l0-66.558c64.874-13.274 122.04-47.776 164.326-95.876l83.314 48.5c14.334 8.356 32.688 3.396 40.968-11.072l29.986-52.37c8.282-14.456 3.35-32.956-10.97-41.296l-83.652-48.706c9.952-30.076 15.916-61.994 15.916-95.464 0-33.456-5.964-65.39-15.916-95.464l83.652-48.706C893.92 359.486 898.852 340.986 890.57 326.532zM512.004 663.186c-82.812 0-149.946-67.694-149.946-151.186 0-83.492 67.132-151.184 149.946-151.184 82.796 0 149.93 67.694 149.93 151.184C661.934 595.492 594.8 663.186 512.004 663.186zM512.004 421.29c-49.696 0-89.972 40.614-89.972 90.71 0 50.094 40.278 90.71 89.972 90.71 49.682 0 89.958-40.618 89.958-90.71C601.96 461.904 561.686 421.29 512.004 421.29z" /></svg>